# xmcd CD database file
#
# Track frame offsets:
#	150
#	6269
#	15341
#	25847
#	35965
#	46631
#	54527
#	62686
#	72198
#	81207
#	92167
#	104125
#	113943
#	124848
#	134388
#
# Disc length: 1905 seconds
#
# Revision: 0
# Processed by: cddbd v1.5.1PL0 Copyright (c) Steve Scherf et al.
# Submitted via: CDex 1.51
#
DISCID=cb076f0f
DTITLE=Johnny Cash - Johnny Cash Collection Vol. 4
DYEAR=2003
DGENRE=Country
TTITLE0=You Tell Me
TTITLE1=Life Goes On
TTITLE2=You Win Again
TTITLE3=I Could Never Be Ashamed of You
TTITLE4=Cold, Cold, Heart
TTITLE5=Hey Good Lookin'
TTITLE6=I Can't Help It
TTITLE7=Blue Train
TTITLE8=Katy Too
TTITLE9=Fool's Hall of Fame
TTITLE10=Thanks a Lot
TTITLE11=Just About Time
TTITLE12=I Joust Thought You'd Like to Know
TTITLE13=Down the Street to 301
TTITLE14=I Forgot to Remember to Forget
EXTD=YEAR: 2003
EXTT0=
EXTT1=
EXTT2=
EXTT3=
EXTT4=
EXTT5=
EXTT6=
EXTT7=
EXTT8=
EXTT9=
EXTT10=
EXTT11=
EXTT12=
EXTT13=
EXTT14=
PLAYORDER=
